# xmcd CD database file
#
# Track frame offsets:
#	150
#	34667
#	86094
#	107086
#	136533
#	158584
#	193953
#
# Disc length: 3158 seconds
#
# Revision: 0
# Processed by: cddbd v1.5.2PL0 Copyright (c) Steve Scherf et al.
# Submitted via: CDex 1.70beta2
#
DISCID=510c5407
DTITLE=Naked On The Floor - Naked On The Floor
DYEAR=2002
DGENRE=Jazz
TTITLE0=Jonathan Freygish
TTITLE1=Possible Reflections
TTITLE2=Cultural Confusion
TTITLE3=The Semitic Problem
TTITLE4=Fears Dress In The Subconscious
TTITLE5=The Little One
TTITLE6=Reward For Big Man Morricone
EXTD=YEAR: 2002
EXTT0=
EXTT1=
EXTT2=
EXTT3=
EXTT4=
EXTT5=
EXTT6=
PLAYORDER=
